# xmcd
#
# Track frame offsets:
# 150
# 14670
# 37168
# 58019
# 75983
# 93798
# 117780
# 136921
# 159430
# 177533
#
# Disc length: 2705 seconds
#
#
# Revision: 8
# Processed by: cddbd v1.5PL3 Copyright (c) Steve Scherf et al.
# Submitted via: FreeRIP 2.70 
#
DISCID=7a0a8f0a
DTITLE=Macy Gray - On How Life Is
DYEAR=1999
DGENRE=Punk
TTITLE0=Why Didn't You Call Me
TTITLE1=Do Something
TTITLE2=Caligula
TTITLE3=I Try
TTITLE4=Sex-O-Matic Venus Freak
TTITLE5=I Can't Wait To Meetchu
TTITLE6=Still
TTITLE7=I've Commited Murder
TTITLE8=A Moment To Myself
TTITLE9=The Letter
EXTD=YEAR: 1999 ID3G: 43
EXTT0=
EXTT1=
EXTT2=
EXTT3=
EXTT4=
EXTT5=
EXTT6=
EXTT7=
EXTT8=
EXTT9=
PLAYORDER=
